<?xml version="1.0" standalone="no"?>
<!DOCTYPE svg PUBLIC "-//W3C//DTD SVG 20010904//EN"
 "http://www.w3.org/TR/2001/REC-SVG-20010904/DTD/svg10.dtd">
<svg version="1.0" xmlns="http://www.w3.org/2000/svg"
 width="239.000000pt" height="100.000000pt" viewBox="0 0 239.000000 100.000000"
 preserveAspectRatio="xMidYMid meet">

<g transform="translate(0.000000,100.000000) scale(0.100000,-0.100000)"
fill="#000000" stroke="none">
<path d="M384 916 c-128 -29 -236 -112 -291 -223 -26 -54 -28 -67 -28 -173 0
-106 3 -120 29 -172 89 -181 306 -271 505 -209 63 19 145 66 176 101 16 18 16
21 -9 73 -33 71 -46 127 -46 207 0 80 13 136 46 207 l26 55 -28 30 c-84 88
-249 133 -380 104z m150 -188 c96 -29 161 -149 137 -252 -55 -238 -376 -219
-398 22 -10 104 33 183 122 223 47 22 83 24 139 7z"/>
<path d="M1103 915 c-262 -58 -393 -338 -273 -582 38 -77 122 -155 200 -184
124 -48 280 -33 387 36 46 31 112 100 102 109 -2 2 -37 27 -77 56 l-73 53 -32
-31 c-46 -43 -89 -62 -142 -62 -60 0 -103 19 -142 63 -42 48 -57 97 -50 173
14 178 200 251 330 130 32 -30 27 -31 119 40 l67 51 -30 36 c-77 94 -248 143
-386 112z"/>
<path d="M2300 555 l0 -105 25 0 25 0 0 105 0 105 -25 0 -25 0 0 -105z"/>
<path d="M1830 620 c0 -11 -7 -20 -15 -20 -8 0 -15 -9 -15 -20 0 -11 7 -20 15
-20 11 0 15 -11 15 -43 0 -52 13 -67 57 -67 26 0 33 4 33 19 0 10 -9 21 -20
24 -15 4 -20 14 -20 36 0 24 4 31 20 31 13 0 20 7 20 19 0 10 -9 21 -20 24
-11 3 -20 12 -20 21 0 10 -9 16 -25 16 -18 0 -25 -5 -25 -20z"/>
<path d="M1473 600 c-49 -20 -59 -96 -17 -129 39 -31 114 -27 114 6 0 12 -7
14 -29 10 -17 -4 -36 0 -47 8 -17 13 -15 14 28 15 26 0 50 5 53 11 11 17 -17
70 -42 80 -28 11 -31 11 -60 -1z m55 -47 c2 -8 -6 -13 -22 -13 -25 0 -33 10
-19 24 10 10 36 3 41 -11z"/>
<path d="M1696 603 c-4 -4 -22 -6 -41 -5 l-35 3 0 -76 c0 -73 1 -75 25 -75 24
0 25 3 25 54 0 86 42 89 46 4 2 -61 2 -60 27 -56 19 3 22 10 25 60 2 47 -1 61
-18 78 -20 20 -41 26 -54 13z"/>
<path d="M2047 603 c-4 -3 -25 -6 -47 -5 l-40 2 0 -75 c0 -73 1 -75 25 -75 23
0 25 4 25 45 0 47 22 71 54 59 12 -5 16 1 16 25 0 29 -16 41 -33 24z"/>
<path d="M2152 600 c-33 -14 -22 -35 18 -35 18 0 35 -6 37 -12 3 -9 -6 -13
-29 -13 -39 0 -58 -15 -58 -46 0 -32 19 -42 83 -42 l57 0 0 63 c0 40 -5 67
-13 74 -20 16 -69 22 -95 11z m58 -94 c0 -8 -5 -18 -11 -22 -14 -8 -33 11 -25
25 10 16 36 13 36 -3z"/>
</g>
</svg>
