<?xml version="1.0" standalone="no"?>
<!DOCTYPE svg PUBLIC "-//W3C//DTD SVG 20010904//EN"
 "http://www.w3.org/TR/2001/REC-SVG-20010904/DTD/svg10.dtd">
<svg version="1.0" xmlns="http://www.w3.org/2000/svg"
 width="500.000000pt" height="500.000000pt" viewBox="0 0 500.000000 500.000000"
 preserveAspectRatio="xMidYMid meet">

<g transform="translate(0.000000,500.000000) scale(0.100000,-0.100000)"
fill="#000000" stroke="none">
<path d="M1787 3185 c-163 -31 -300 -107 -413 -228 -78 -84 -130 -174 -165
-287 -34 -108 -34 -292 0 -400 39 -128 86 -206 181 -301 148 -149 286 -208
505 -216 232 -9 402 49 561 192 l58 51 -42 85 c-56 115 -82 214 -89 339 -9
169 30 345 103 465 l32 55 -69 64 c-166 153 -428 225 -662 181z m295 -368
c140 -69 216 -210 205 -381 -15 -231 -221 -387 -437 -332 -146 37 -244 149
-271 309 -31 185 75 368 244 423 68 22 193 13 259 -19z"/>
<path d="M3095 3190 c-262 -42 -479 -220 -569 -469 -125 -347 27 -738 349
-897 111 -55 197 -74 338 -74 252 0 404 73 585 281 l23 27 -118 84 c-65 47
-130 93 -145 103 l-28 17 -64 -60 c-79 -74 -147 -102 -244 -102 -83 0 -124 11
-184 49 -187 119 -214 443 -50 604 144 141 377 121 511 -45 14 -17 22 -20 32
-12 8 6 74 57 146 113 l133 103 -42 50 c-84 99 -213 178 -347 213 -77 20 -244
27 -326 15z"/>
</g>
</svg>
